<svg id="Capa_1" data-name="Capa 1" xmlns="http://www.w3.org/2000/svg" viewBox="0 0 850.55 850.55"><defs><style>.cls-1{fill:#f51745;stroke:#fff;}.cls-1,.cls-6{stroke-miterlimit:10;}.cls-2{fill:#f79bb4;}.cls-3{fill:#f0dfe6;}.cls-4{fill:#6d4014;}.cls-5{fill:#563313;}.cls-6,.cls-7{fill:#fff;stroke:#000;}.cls-6{stroke-width:3px;}</style></defs><rect class="cls-1" x="354.47" y="370.94" width="600.43" height="600.43" transform="translate(-512.23 413.63) rotate(-45)"/><rect class="cls-2" x="274.21" y="672.01" width="52.87" height="64.58" transform="translate(-639.36 173) rotate(-45)"/><rect class="cls-2" x="354.58" y="582.47" width="71.2" height="64.58" transform="translate(-549.82 210.02) rotate(-44.99)"/><rect class="cls-2" x="450.03" y="485.1" width="75.06" height="64.58" transform="translate(-452.45 250.35) rotate(-44.99)"/><polygon class="cls-2" points="402.31 173.01 353.18 222.14 307.52 176.47 356.64 127.35 402.31 173.01"/><rect class="cls-2" x="643.79" y="292.12" width="73.5" height="64.59" transform="translate(-259.48 330.36) rotate(-45)"/><rect class="cls-2" x="369.01" y="766.8" width="52.87" height="64.58" transform="translate(-678.63 267.79) rotate(-45)"/><rect class="cls-2" x="449.38" y="677.27" width="71.2" height="64.58" transform="translate(-589.1 304.88) rotate(-45)"/><rect class="cls-2" x="544.82" y="579.89" width="75.06" height="64.58" transform="translate(-491.72 345.21) rotate(-45)"/><rect class="cls-2" x="644.38" y="483.13" width="69.47" height="64.58" transform="translate(-394.96 385.29) rotate(-45)"/><rect class="cls-2" x="738.58" y="386.91" width="73.5" height="64.59" transform="translate(-298.74 425.15) rotate(-45)"/><rect class="cls-2" x="471.61" y="869.41" width="52.88" height="64.59" transform="translate(-721.13 370.4) rotate(-45)"/><rect class="cls-2" x="551.99" y="779.87" width="71.19" height="64.59" transform="translate(-631.6 407.49) rotate(-45)"/><rect class="cls-2" x="647.43" y="682.5" width="75.05" height="64.59" transform="translate(-534.22 447.82) rotate(-45)"/><rect class="cls-2" x="746.99" y="585.73" width="69.47" height="64.59" transform="translate(-437.46 487.9) rotate(-45)"/><rect class="cls-2" x="841.19" y="489.52" width="73.5" height="64.59" transform="translate(-341.24 527.76) rotate(-45)"/><rect class="cls-2" x="572.14" y="969.93" width="52.87" height="64.58" transform="translate(-762.77 470.92) rotate(-45)"/><rect class="cls-2" x="652.51" y="880.4" width="71.2" height="64.58" transform="translate(-673.24 508.01) rotate(-45)"/><rect class="cls-2" x="747.95" y="783.02" width="75.05" height="64.59" transform="translate(-575.86 548.34) rotate(-45)"/><rect class="cls-2" x="847.51" y="686.25" width="69.47" height="64.59" transform="translate(-479.09 588.42) rotate(-45)"/><rect class="cls-2" x="941.71" y="590.04" width="73.5" height="64.59" transform="translate(-382.88 628.28) rotate(-45)"/><rect class="cls-3" x="897.35" y="638.86" width="64.59" height="64.59" transform="translate(-431.7 608.05) rotate(-45)"/><rect class="cls-3" x="796.83" y="538.34" width="64.59" height="64.59" transform="translate(-390.06 507.53) rotate(-45)"/><rect class="cls-3" x="694.22" y="435.73" width="64.59" height="64.59" transform="translate(-347.56 404.92) rotate(-45)"/><rect class="cls-3" x="599.43" y="340.94" width="64.58" height="64.58" transform="translate(-308.31 310.06) rotate(-44.99)"/><rect class="cls-2" x="562.09" y="315.38" width="64.58" height="41.02" transform="translate(-292.83 272.8) rotate(-45)"/><rect class="cls-2" x="646.82" y="385.89" width="64.58" height="69.47" transform="translate(-327.93 357.53) rotate(-45)"/><rect class="cls-2" x="745.52" y="479.06" width="64.59" height="80.53" transform="translate(-368.81 456.23) rotate(-45)"/><rect class="cls-2" x="847.09" y="582.11" width="64.59" height="77.57" transform="translate(-410.88 557.79) rotate(-45)"/><rect class="cls-2" x="946.17" y="683.22" width="64.59" height="73.5" transform="translate(-451.92 656.87) rotate(-45)"/><rect class="cls-3" x="504.64" y="435.73" width="64.58" height="64.58" transform="translate(-403.08 270.95) rotate(-45.01)"/><rect class="cls-2" x="467.3" y="410.17" width="64.58" height="41.02" transform="translate(-387.62 233.53) rotate(-45)"/><rect class="cls-3" x="599.43" y="530.52" width="64.58" height="64.58" transform="translate(-442.35 365.66) rotate(-45)"/><polygon class="cls-2" points="402.31 271.27 356.64 316.93 307.52 267.81 353.18 222.14 402.31 271.27"/><rect class="cls-3" x="702.04" y="633.13" width="64.59" height="64.59" transform="translate(-484.85 468.27) rotate(-45)"/><rect class="cls-2" x="650.73" y="573.85" width="64.59" height="80.53" transform="translate(-463.6 416.97) rotate(-45)"/><rect class="cls-3" x="802.56" y="733.65" width="64.59" height="64.59" transform="translate(-526.49 568.79) rotate(-45)"/><rect class="cls-2" x="752.3" y="676.9" width="64.59" height="77.57" transform="translate(-505.67 518.53) rotate(-45)"/><rect class="cls-2" x="851.38" y="778.01" width="64.59" height="73.5" transform="translate(-546.71 617.61) rotate(-45)"/><rect class="cls-3" x="703.82" y="832.39" width="64.59" height="64.59" transform="translate(-625.23 527.89) rotate(-45)"/><rect class="cls-3" x="603.3" y="731.87" width="64.59" height="64.59" transform="translate(-583.59 427.37) rotate(-45)"/><rect class="cls-3" x="500.69" y="629.26" width="64.58" height="64.58" transform="translate(-541.09 324.76) rotate(-45)"/><rect class="cls-3" x="405.9" y="534.47" width="64.58" height="64.58" transform="translate(-501.84 230.05) rotate(-45.01)"/><rect class="cls-2" x="368.56" y="508.91" width="64.58" height="41.02" transform="translate(-486.36 192.63) rotate(-45)"/><polygon class="cls-2" points="303.57 370.01 257.9 415.67 208.78 366.55 254.44 320.88 303.57 370.01"/><rect class="cls-2" x="551.99" y="672.59" width="64.59" height="80.53" transform="translate(-562.34 376.07) rotate(-45)"/><rect class="cls-2" x="653.56" y="775.64" width="64.59" height="77.57" transform="translate(-604.41 477.63) rotate(-45)"/><rect class="cls-2" x="752.64" y="876.75" width="64.59" height="73.5" transform="translate(-645.45 576.71) rotate(-45)"/><rect class="cls-3" x="309.89" y="630.48" width="64.58" height="64.58" transform="translate(-597.86 190.28) rotate(-45.01)"/><rect class="cls-2" x="272.55" y="604.92" width="64.58" height="41.02" transform="translate(-582.37 152.86) rotate(-45)"/><rect class="cls-3" x="404.68" y="725.27" width="64.58" height="64.58" transform="translate(-637.1 284.99) rotate(-45)"/><polygon class="cls-2" points="207.56 466.02 161.89 511.68 112.77 462.56 158.43 416.89 207.56 466.02"/><rect class="cls-3" x="507.29" y="827.88" width="64.59" height="64.59" transform="translate(-679.6 387.6) rotate(-45)"/><rect class="cls-2" x="455.98" y="768.6" width="64.59" height="80.53" transform="translate(-658.35 336.3) rotate(-45)"/><rect class="cls-3" x="607.81" y="928.4" width="64.58" height="64.58" transform="translate(-721.24 488.12) rotate(-45)"/><rect class="cls-2" x="557.55" y="871.65" width="64.58" height="77.57" transform="translate(-700.4 437.75) rotate(-44.99)"/><rect class="cls-2" x="656.63" y="972.76" width="64.59" height="73.5" transform="translate(-741.46 536.94) rotate(-45)"/><rect class="cls-4" x="52.51" y="265.99" width="726.5" height="337.6" rx="16.36"/><path class="cls-5" d="M512.32,752.46l-9.15-.85c-5.89-.5-14.42-1.32-24.91-1.51a156.37,156.37,0,0,0-17.07.58,101.61,101.61,0,0,0-19.05,3.46,78.1,78.1,0,0,0-19.32,8.56c-6.39,3.81-13,8.53-21,11.65a49.58,49.58,0,0,1-12.33,2.92,68,68,0,0,1-12.08.16,188.42,188.42,0,0,1-22-3.23c-13.74-2.56-26.1-5-36.47-7.1-20.73-4.2-33.51-7.08-33.51-7.08s13,1.39,34,4.11c10.49,1.35,23,3,36.8,5,6.93,1,14.11,2.15,21.48,2.49s14.9-.25,21.92-3,13.5-7.16,20.23-11c1.69-1,3.38-1.9,5.12-2.75s3.52-1.57,5.25-2.35,3.55-1.28,5.29-1.9,3.53-1,5.27-1.49a97.46,97.46,0,0,1,20.1-2.67,141.52,141.52,0,0,1,17.48.52c10.62,1,19.06,2.54,24.89,3.6,2.91.55,5.16,1,6.69,1.31Z" transform="translate(-229.41 -245.88)"/><path class="cls-5" d="M474.74,705l-1.69.77c-.56.24-1.25.58-2.08.91l-2.92,1.07a67.22,67.22,0,0,1-19.57,3.3,117,117,0,0,1-29.31-3.39c-10.83-2.49-22.3-6.34-34.32-9.75-6-1.69-11.9-3.15-17.62-4.19a93.57,93.57,0,0,0-16.58-1.65,67.33,67.33,0,0,0-27.44,5.52,46.12,46.12,0,0,0-15.53,11.08L305.73,711c-.56.7-.94,1.34-1.3,1.84l-1.06,1.53.84-1.67c.29-.54.59-1.24,1.05-2l1.68-2.62a44.79,44.79,0,0,1,14.91-13.19A65.46,65.46,0,0,1,350.53,687c11.38-.58,23.67,1.65,36,5.12s23.57,7.67,34,10.63a134,134,0,0,0,28.09,5.3,72.9,72.9,0,0,0,19.28-1.19l3-.69c.87-.22,1.58-.46,2.17-.62Z" transform="translate(-229.41 -245.88)"/><path class="cls-5" d="M335.15,730s-2.61-.3-7.44-1.18l-7.43-1.36,7.8-.74c6-.56,16.41-1.34,28.06-1.85,4.67-.2,9.13-.33,13.18-.41l-1,4.85A32,32,0,0,0,354,724.58a33,33,0,0,0-4.57-.07l-1.66.12s.52-.26,1.54-.68a25.92,25.92,0,0,1,4.57-1.33,27.36,27.36,0,0,1,7.44-.39,28.1,28.1,0,0,1,9.41,2.48l7.74,3.54-8.74,1.31a125,125,0,0,1-41.78-.75l.37-2.09C332.83,728.72,335.15,730,335.15,730Z" transform="translate(-229.41 -245.88)"/><path class="cls-5" d="M871.05,777.38l-2.74-1c-.91-.33-2-.81-3.34-1.24l-4.6-1.54c-1.76-.49-3.7-1.09-5.84-1.65s-4.48-1.14-7-1.58a122.15,122.15,0,0,0-17.34-2.22,125.57,125.57,0,0,0-44.64,5.33c-8.1,2.47-16.34,6.08-25.07,9.69s-18.05,7.25-28.26,9.14-20.23,1.68-29.65,1.45-18.49-.54-27.14-.84c-17.29-.61-32.87-1.27-45.95-1.89-26.15-1.24-42.32-2.29-42.32-2.29s16.2-.46,42.38-.73c13.09-.13,28.68-.22,46-.18l27.14.16c9.38.07,19,.11,28.47-1.62s18.46-5.14,27.18-8.55,17.25-6.92,25.8-9.23a121.71,121.71,0,0,1,46.34-3.45,116.38,116.38,0,0,1,17.5,3.37c2.55.62,4.85,1.45,7,2.1s4,1.47,5.75,2.1l4.5,1.91c1.3.54,2.35,1.12,3.23,1.52Z" transform="translate(-229.41 -245.88)"/><path class="cls-5" d="M701.57,532.62s-4.08.73-11.48,1.86-18.14,2.62-31.47,4c-6.66.68-14,1.34-21.84,1.89s-16.24,1-25,1.77c-17.52,1.29-36.34,5-55.94,10.39s-38.19,11.09-55.5,15.19a243.66,243.66,0,0,1-46.72,7.2A133.35,133.35,0,0,1,421.87,573c-3.7-.69-6.52-1.4-8.43-1.92l-2.88-.84,2.94.59c1.94.36,4.8.83,8.5,1.24a143.57,143.57,0,0,0,31.42-.19,273.63,273.63,0,0,0,45.66-9.12c17-4.6,35.39-10.77,55.21-16.09s39.33-8.91,57.14-9.64c8.89-.47,17.3-.6,25.15-.81s15.15-.47,21.82-.78c13.34-.62,24.13-1.37,31.59-1.93Z" transform="translate(-229.41 -245.88)"/><path class="cls-5" d="M974.61,586l-1.53.94c-.5.31-1.12.7-1.9,1.09s-1.63.9-2.66,1.34a58.54,58.54,0,0,1-7.69,2.9,78.47,78.47,0,0,1-10.67,2.31c-8,1.23-17.66,1.46-28.18,1.41s-22.16-.29-34.33-1c-24.33-1.32-46.25-4-62-6.37-7.89-1.18-14.26-2.28-18.65-3.08l-6.82-1.28L888,589l34.14,1.89c10.52.61,19.88,1.13,27.73.68a88.86,88.86,0,0,0,10.53-1.16,64.58,64.58,0,0,0,7.79-1.93c1.07-.3,2-.69,2.78-1s1.47-.58,2-.81Z" transform="translate(-229.41 -245.88)"/><path class="cls-5" d="M979.86,638.51l-3,.74c-2,.5-4.94,1.16-8.76,2a313.91,313.91,0,0,1-81.82,6.07c-9.26-.53-18.94-1.53-28.9-2.81s-20.23-2.8-30.71-4.22S805.92,637.64,796,637s-19.43-.72-28.61-.57-17.95.36-26.19.21a189.62,189.62,0,0,1-22.9-1.6c-1.74-.28-3.44-.49-5.09-.81l-4.79-1c-3.08-.78-6-1.46-8.63-2.39-1.32-.46-2.62-.8-3.82-1.31l-3.47-1.4a19.88,19.88,0,0,1-5.73-3.28,15,15,0,0,1-3.52-3.94,6.9,6.9,0,0,1-1-3.7,5.1,5.1,0,0,1,.61-2.27l.41-.68-.35.71a5.11,5.11,0,0,0-.42,2.23,6.62,6.62,0,0,0,1.27,3.41,14.6,14.6,0,0,0,3.62,3.49,19.18,19.18,0,0,0,5.67,2.73l3.49,1.13c1.2.42,2.51.68,3.83,1,2.63.75,5.52,1.23,8.56,1.82l4.74.68c1.62.22,3.3.33,5,.51a204.89,204.89,0,0,0,22.55.48c8.13-.21,16.83-.75,26-1.18a284.46,284.46,0,0,1,29.11-.1c10.11.49,20.49,1.67,31.06,3.07s20.8,3.05,30.68,4.48,19.39,2.65,28.49,3.45a359.66,359.66,0,0,0,48.55,1c13.85-.64,25-1.9,32.74-2.94,3.85-.55,6.85-1,8.87-1.31Z" transform="translate(-229.41 -245.88)"/><path class="cls-5" d="M662.16,680.9s-5.32-.33-13.84-1.33c-4.26-.49-9.31-1.15-14.9-2-2.79-.43-5.71-.92-8.74-1.46s-6.11-1.16-9.18-1.6c-1.54-.22-3-.39-4.51-.47-.74-.06-1.46-.07-2.19-.06s-1.44,0-2.16,0a77.52,77.52,0,0,0-8.48.86,147.77,147.77,0,0,1-15,1.81,34.89,34.89,0,0,1-10.33-.89,19.78,19.78,0,0,1-2.67-.82l-.91-.34,1,.08a22.22,22.22,0,0,0,2.74.15,42.26,42.26,0,0,0,9.83-1.17c4.09-.88,8.85-2.43,14.43-3.82a58.09,58.09,0,0,1,9.06-1.62c.8-.11,1.64-.12,2.47-.16s1.69-.05,2.54,0c1.7.06,3.4.23,5.09.46,3.37.49,6.52,1.23,9.5,1.92s5.87,1.42,8.61,2.13c5.47,1.42,10.37,2.82,14.47,4.06C657.14,679.09,662.16,680.9,662.16,680.9Z" transform="translate(-229.41 -245.88)"/><path class="cls-5" d="M1000,724.77l-5.9.65c-3.81.42-9.32.92-16.14,1.38s-15,.85-24,1-19,.06-29.42-.41-20.34-1.34-29.33-2.31-17.06-2.14-23.81-3.24-12.19-2.1-15.94-2.86l-5.82-1.2,75.18,3.58Z" transform="translate(-229.41 -245.88)"/><path class="cls-5" d="M938,812.37s-1.73,1.18-4.92,3.23a138.24,138.24,0,0,1-14,8,75.74,75.74,0,0,1-10.47,4.21,59.17,59.17,0,0,1-12.87,2.55c-9.26.85-19.4-.42-29.55-2.53s-19.57-4.68-28.19-6-16.52-1.75-23.06-1a48.21,48.21,0,0,0-15.12,3.92l-2.25,1.07-1.59.91-1.33.75,1.18-1,1.44-1.16,2.1-1.43a45.32,45.32,0,0,1,15.08-6.07c6.76-1.56,15.11-1.92,24.18-1.08s18.79,3.1,28.77,5.15,19.44,3.6,28,3.36a71,71,0,0,0,22.46-4.46c6.28-2.25,11.25-4.54,14.7-6.07Z" transform="translate(-229.41 -245.88)"/><path class="cls-5" d="M302.29,546.88a179.9,179.9,0,0,1,65.65,0,179.9,179.9,0,0,1-65.65,0Z" transform="translate(-229.41 -245.88)"/><path class="cls-5" d="M302.32,606.39s2.45-.29,6.88-.71,10.86-1,18.89-1a105.16,105.16,0,0,1,13.18.85,78.42,78.42,0,0,1,14.91,3.4c10.28,3.35,20.48,8.9,31.69,12.31s22.57,5.27,32.9,6.85,19.73,2.93,27.57,4.22c15.69,2.55,25.37,4.42,25.37,4.42s-9.85-.37-25.71-1.42c-7.94-.54-17.35-1.2-27.85-2.17S398,630.7,386.08,627a130.88,130.88,0,0,1-16.74-6.66c-5.21-2.41-10.11-4.75-14.88-6.61a97.65,97.65,0,0,0-26.53-6c-7.83-.77-14.26-.93-18.7-1.1Z" transform="translate(-229.41 -245.88)"/><path class="cls-5" d="M314.93,830l1.63.13a14.67,14.67,0,0,0,2,.06c.39,0,.81,0,1.26,0l1.42-.11a37.63,37.63,0,0,0,7.14-1.41,80.53,80.53,0,0,0,9.07-3.39c3.31-1.43,6.91-3.13,10.93-4.8a87.09,87.09,0,0,1,13.32-4.29c9.61-2.32,20.41-3.23,31.55-3.6,44.45-1.37,80.54.57,80.54.57s-35.93,4.1-80.33,5.46c-11.05.37-21.46.89-30.72,2.55a97.56,97.56,0,0,0-12.94,3.19c-4,1.29-7.79,2.65-11.3,3.75a71.36,71.36,0,0,1-9.7,2.42,34.84,34.84,0,0,1-7.54.49l-1.46-.09c-.46,0-.88-.12-1.28-.17a15.75,15.75,0,0,1-2-.36Z" transform="translate(-229.41 -245.88)"/><path class="cls-5" d="M713,750.55l-5.63-1.61-3-.89c-1.1-.3-2.31-.59-3.6-.93-2.59-.65-5.49-1.5-8.78-2.17l-5.11-1.17c-1.78-.4-3.65-.71-5.57-1.1-3.84-.82-8-1.42-12.32-2.15-8.71-1.26-18.3-2.33-28.42-3s-19.77-.58-28.56-.34c-4.39.23-8.58.34-12.48.71-2,.17-3.86.26-5.67.45l-5.21.57c-3.34.3-6.32.8-9,1.14-1.32.19-2.55.34-3.68.52l-3.08.53-5.78,1,5.55-1.87,3-1c1.1-.34,2.31-.65,3.61-1,2.59-.7,5.53-1.58,8.85-2.26l5.2-1.13c1.82-.38,3.72-.66,5.69-1,3.93-.73,8.17-1.19,12.64-1.7a186.62,186.62,0,0,1,58.24,3.38c4.38,1,8.54,2,12.36,3.14,1.92.57,3.78,1.06,5.53,1.65l5,1.73c3.22,1.05,6,2.27,8.54,3.26,1.24.51,2.4,1,3.46,1.42l2.86,1.32Z" transform="translate(-229.41 -245.88)"/><path class="cls-5" d="M873.12,801.14s-.79.31-2.25.78a62.82,62.82,0,0,1-6.29,1.62,64.78,64.78,0,0,1-9.57,1.22c-.93,0-1.79.09-2.86.07a10,10,0,0,1-3.77-.72,7.1,7.1,0,0,1-2-1.31,9.26,9.26,0,0,1-1.38-1.59c-.7-1-1.16-1.85-1.55-2.3a2.29,2.29,0,0,0-.47-.47,3.22,3.22,0,0,0-.65-.35,9.8,9.8,0,0,0-2.13-.51l-2.76-.36-2.7-.39c-3.51-.54-6.67-1.15-9.31-1.73-5.29-1.14-8.55-2.14-8.55-2.14s3.37-.51,8.77-.87c2.7-.18,5.91-.32,9.47-.34h2.73c.94,0,1.83,0,2.91.07a13.42,13.42,0,0,1,3.61.65,8.54,8.54,0,0,1,2,1,7.94,7.94,0,0,1,1.74,1.61,28.23,28.23,0,0,1,1.79,2.75,5.14,5.14,0,0,0,.51.69,1.74,1.74,0,0,0,.38.33,5,5,0,0,0,1.75.5c.79.11,1.74.2,2.58.3,3.45.37,6.59.65,9.25.86l6.36.45Z" transform="translate(-229.41 -245.88)"/><path class="cls-5" d="M628.41,757.58a198.12,198.12,0,0,1,19.91-2.35l19.85-1.44-19.31,6.14A83.27,83.27,0,0,1,614,763.29l-21.27-2.54,21-1.81c10.73-.92,17.76-.8,17.76-.8s-6.6,2.43-17,5.12l-.31-4.35c5-.33,11.29-.83,18-1.57,5.72-.63,11.1-1.36,15.66-2.05l.54,4.7A199.86,199.86,0,0,1,628.41,757.58Z" transform="translate(-229.41 -245.88)"/><path class="cls-6" d="M506.17,675.35h0l-.56,0h-.13l-12-.68c-4.11-.16-8.21-.21-12.31-.32l-24.63-.57h-.37a8,8,0,0,0,.37,15.91l24.46-.58,4.84-.11a37.8,37.8,0,0,0-2.1,5.38,29.05,29.05,0,0,0-.85,3.16l-.67,2.83c-.17.78-.35,1.56-.58,2.33s-.44,1.54-.7,2.3a60.06,60.06,0,0,1-3.75,8.93,61.86,61.86,0,0,1-11.57,15.52,49.8,49.8,0,0,1-7.33,5.89,31,31,0,0,1-7.73,3.71,14.62,14.62,0,0,1-3.49.67,8.81,8.81,0,0,1-1.46,0l-.34,0-.57-.08-1.15-.17a22.82,22.82,0,0,1-3.92-.94,9.54,9.54,0,0,1-2.62-1.33,8.78,8.78,0,0,1-1.87-1.92,14.8,14.8,0,0,1-1.68-3.05,42.36,42.36,0,0,1-2.38-8.68,155.64,155.64,0,0,1-1.77-20.65c-.1-3.57-.16-7.15-.15-10.76v-1.35c0-.45,0-.82,0-1.23,0-.79,0-1.59.08-2.39l.17-2.42.28-2.44a101.33,101.33,0,0,1,4.78-19.59,145.59,145.59,0,0,1,8.31-19.13,176.69,176.69,0,0,1,10.79-18.13,128.91,128.91,0,0,1,12.91-16.32c1.15-1.19,2.33-2.37,3.49-3.38a19.83,19.83,0,0,1,1.68-1.33l.82-.63a6.74,6.74,0,0,1,.85-.5,14.48,14.48,0,0,1,6.91-2.26,12.74,12.74,0,0,1,6.75,1.62,15.85,15.85,0,0,1,5.44,5.07l.53.8c.17.27.28.58.43.86l.44.86c.13.29.21.6.33.9l.34.9c.08.27.11.47.18.71l.13.73.06.8a20.55,20.55,0,0,1-1.57,7.8,47.28,47.28,0,0,1-4.37,8.46c-.89,1.39-1.84,2.75-2.83,4.08-.5.67-1,1.33-1.53,2l-.78.93-.71.8a7.87,7.87,0,0,0-.6.68,8.27,8.27,0,0,0,13,10.25l.22-.28c.43-.55.69-.91,1-1.35l.9-1.26c.58-.85,1.15-1.68,1.71-2.53,1.11-1.69,2.17-3.41,3.17-5.19a68.64,68.64,0,0,0,5.2-11.41,35.69,35.69,0,0,0,2.14-13.83c-.06-.65-.11-1.29-.2-2s-.22-1.32-.37-2-.34-1.35-.54-1.95l-.63-1.69c-.23-.56-.42-1.13-.68-1.67l-.81-1.6c-.29-.53-.54-1.08-.86-1.59l-1-1.5a30.73,30.73,0,0,0-10.59-9.79A28.08,28.08,0,0,0,479.65,586a29.54,29.54,0,0,0-14,4.16c-.51.3-1.06.57-1.53.9l-1.41,1c-.92.67-1.92,1.36-2.69,2-1.65,1.37-3.11,2.77-4.54,4.18-2.84,2.83-5.42,5.76-7.91,8.73s-4.86,6-7.12,9.13A192.93,192.93,0,0,0,428,635.62a162.44,162.44,0,0,0-9.89,21.09c-1.4,3.67-2.63,7.44-3.71,11.28A102,102,0,0,0,412,679.84l-.4,3-.26,3.09c-.09,1-.1,2.08-.15,3.12l0,1.54V692c0,3.76,0,7.54.13,11.33a155.84,155.84,0,0,0,2.18,23.32,59.43,59.43,0,0,0,3.65,12.53,32.33,32.33,0,0,0,3.74,6.54,25.65,25.65,0,0,0,6,5.79A27.42,27.42,0,0,0,434,755.1a40.76,40.76,0,0,0,6.84,1.53c.55.08,1.07.14,1.59.2l.8.1,1,.07a27.25,27.25,0,0,0,4.05,0,32,32,0,0,0,7.31-1.52,46.29,46.29,0,0,0,12-6.06,66,66,0,0,0,9.65-8.19,75.49,75.49,0,0,0,14.05-20.25,69.33,69.33,0,0,0,4.3-11.61q.42-1.5.75-3c.24-1,.43-2,.6-3.06l.47-2.57a20.31,20.31,0,0,1,.47-2.2,17.47,17.47,0,0,1,3.18-7,8,8,0,0,1,2.13-1.89,5.93,5.93,0,0,0,.56-.29c.2-.05.39-.16.57-.21s.37-.11.53-.14.14,0,.2,0h.49a6.8,6.8,0,0,0,.56-13.58Z" transform="translate(-229.41 -245.88)"/><path class="cls-6" d="M597.88,722c1.64-3.56,3.19-7.09,4.69-10.71a7.09,7.09,0,0,0-12.71-6.22l0,0-5.62,9.82-2.83,4.81c-.92,1.54-1.91,3.16-2.73,4.3l-.3.41-.37.46c-.24.32-.48.62-.73.9-.49.6-1,1.13-1.51,1.69a26.67,26.67,0,0,1-10.86,6.86,31.78,31.78,0,0,1-8.72,1.47h-2.32c-.78,0-1.58-.12-2.37-.15a47.86,47.86,0,0,1-4.81-.6,20.15,20.15,0,0,1-7.46-2.58,11.27,11.27,0,0,1-4.21-4.67,22.19,22.19,0,0,1-1.93-7.82,60.55,60.55,0,0,1,.14-9.85c.15-1.72.34-3.48.58-5.24.12-.89.24-1.78.38-2.67,0-.21.07-.47.11-.64l.1-.47.17-.94a18.81,18.81,0,0,1,3.36-7,30.57,30.57,0,0,1,6.52-6.21,56.66,56.66,0,0,1,8.69-5A90.39,90.39,0,0,1,563,678q2.55-.87,5.17-1.61l2.61-.72,2.52-.64a5.4,5.4,0,0,0,1.27-10h0l-4.29-2.67c-1.44-.94-2.87-1.88-4.26-2.86a90.76,90.76,0,0,1-7.82-6.16c-1.2-1.07-2.33-2.18-3.4-3.29s-2-2.27-2.88-3.42a30.31,30.31,0,0,1-2.2-3.47l-.44-.86-.37-.87a7.44,7.44,0,0,1-.33-.85,3.63,3.63,0,0,1-.25-.78,9.42,9.42,0,0,1-.36-2.83,14.9,14.9,0,0,1,.08-1.6c.11-.57.16-1.13.32-1.73a20.22,20.22,0,0,1,1.18-3.7,30.6,30.6,0,0,1,1.9-3.8,51.57,51.57,0,0,1,12.19-13.72,41.62,41.62,0,0,1,7.54-4.85,24.64,24.64,0,0,1,3.67-1.45c.3-.07.53-.16.89-.23l1.11-.23,2.22-.47a32.32,32.32,0,0,1,8.27-.27,16.16,16.16,0,0,1,6.45,2.25,10,10,0,0,1,3.91,4.53c.09.23.19.46.3.7s.13.48.22.73.17.48.21.73.07.51.12.76l.08.38v.38c0,.25,0,.51,0,.76s0,.53-.06.79a4.45,4.45,0,0,1-.08.81,18.13,18.13,0,0,1-2.89,7,29.57,29.57,0,0,1-2.67,3.48c-.49.57-1,1.12-1.53,1.64-.26.27-.53.51-.79.77s-.58.53-.65.61l-1.12,1.35a7,7,0,0,0,9.26,10.22c.68-.45,1-.72,1.53-1.07s.88-.66,1.3-1q1.26-1,2.46-2.13a39.72,39.72,0,0,0,4.48-4.83A32.41,32.41,0,0,0,614.24,621a16.6,16.6,0,0,0,.36-1.89c.09-.65.22-1.28.26-1.94l.08-2,0-1-.07-1-.17-2c-.08-.65-.24-1.29-.36-1.94s-.25-1.3-.46-1.93l-.65-1.87-.34-.93-.43-.9-.89-1.78c-.65-1.15-1.41-2.25-2.17-3.33a37.29,37.29,0,0,0-2.65-3l-1.47-1.32a11.15,11.15,0,0,0-1.54-1.22A32,32,0,0,0,590,587.46a49.5,49.5,0,0,0-13.59,0l-3.17.56-1.58.3c-.53.11-1.18.3-1.76.46a41.21,41.21,0,0,0-6.55,2.49,60,60,0,0,0-11,6.88c-1.68,1.29-3.25,2.68-4.79,4.1s-3,2.94-4.36,4.54a62.68,62.68,0,0,0-7.46,10.41,48.12,48.12,0,0,0-2.91,6,38.39,38.39,0,0,0-2.05,6.77,29.25,29.25,0,0,0-.61,7.56,25.14,25.14,0,0,0,1.55,7.93,18,18,0,0,0,.71,1.79c.25.55.49,1.13.78,1.65s.56,1.07.86,1.59L535,652a40.2,40.2,0,0,0,4.21,5.41,51,51,0,0,0,9.82,8.14c1,.67,2.1,1.3,3.17,1.9-1.41.37-2.82.76-4.22,1.23a60,60,0,0,0-11.85,5.17c-1,.57-1.93,1.13-2.87,1.78s-1.87,1.31-2.79,2-1.8,1.51-2.7,2.27-1.72,1.67-2.53,2.59a34.58,34.58,0,0,0-7.36,13.08l-.48,1.86-.23.93-.16.77q-.3,1.49-.57,3c-.35,2-.69,4.05-.93,6.15a68.75,68.75,0,0,0-.42,13.09,40.15,40.15,0,0,0,3.58,14.35A28.85,28.85,0,0,0,529.57,748a38.14,38.14,0,0,0,14.09,5,62.06,62.06,0,0,0,6.59.74c1.13.05,2.23.17,3.37.14l3.42-.11a49,49,0,0,0,13.76-2.84,41.33,41.33,0,0,0,12.36-7.25,44,44,0,0,0,5-5c.75-.89,1.49-1.8,2.15-2.74.34-.46.67-.93,1-1.41l.47-.7.49-.79c1.25-2.07,2.12-3.81,3.05-5.62S597.05,723.76,597.88,722Z" transform="translate(-229.41 -245.88)"/><path class="cls-6" d="M802.11,620.88c.09-.64.22-1.28.27-1.93l.07-2,0-1-.07-1-.18-2c-.07-.66-.24-1.3-.36-1.95a17.88,17.88,0,0,0-.46-1.92l-.65-1.88-.34-.93-.43-.89-.88-1.79c-.65-1.15-1.42-2.24-2.18-3.33a39.24,39.24,0,0,0-2.64-3l-1.48-1.32a12,12,0,0,0-1.54-1.22,32.1,32.1,0,0,0-13.8-5.64,49.89,49.89,0,0,0-13.59,0l-3.17.57-1.59.3c-.53.11-1.18.3-1.76.45a42.21,42.21,0,0,0-6.55,2.5,58.91,58.91,0,0,0-11,6.88c-1.67,1.28-3.24,2.67-4.79,4.09s-3,2.95-4.36,4.54a63.1,63.1,0,0,0-7.46,10.41,48.26,48.26,0,0,0-2.91,6.05,38.13,38.13,0,0,0-2.05,6.77,29.66,29.66,0,0,0-.61,7.56,25.47,25.47,0,0,0,1.55,7.93c.22.68.47,1.22.71,1.78s.49,1.13.78,1.66.56,1.07.86,1.59l.93,1.51a40.84,40.84,0,0,0,4.21,5.41,51.66,51.66,0,0,0,9.82,8.14c1.05.67,2.1,1.3,3.17,1.9-1.41.36-2.82.76-4.22,1.22a60.28,60.28,0,0,0-11.85,5.17c-1,.57-1.92,1.14-2.86,1.79s-1.88,1.3-2.8,2-1.8,1.51-2.7,2.27-1.72,1.67-2.52,2.59a34.58,34.58,0,0,0-7.37,13.09l-.48,1.85-.23.93-.16.78q-.3,1.49-.57,3c-.35,2-.69,4.05-.92,6.14a69.59,69.59,0,0,0-.43,13.09,40.15,40.15,0,0,0,3.58,14.35,29,29,0,0,0,10.91,12.22,38.2,38.2,0,0,0,14.09,5c2.19.28,4.33.67,6.59.74,1.13.05,2.23.17,3.37.14l3.42-.11a49.36,49.36,0,0,0,13.76-2.85,40.92,40.92,0,0,0,12.36-7.25,44,44,0,0,0,5-5c.74-.9,1.48-1.8,2.14-2.74.35-.47.67-.94,1-1.41l.47-.71.49-.78c1.26-2.08,2.12-3.81,3.05-5.63s1.72-3.57,2.55-5.35c1.64-3.55,3.19-7.08,4.69-10.71a7.09,7.09,0,0,0-12.7-6.22l0,0-5.61,9.83-2.83,4.8c-.93,1.54-1.92,3.16-2.74,4.31l-.3.41-.36.46c-.24.31-.49.61-.74.9-.48.59-1,1.13-1.51,1.69a27.3,27.3,0,0,1-3.29,2.91,26.35,26.35,0,0,1-7.56,3.94,31.86,31.86,0,0,1-8.73,1.48h-2.32c-.78,0-1.58-.11-2.37-.15a47.8,47.8,0,0,1-4.81-.59,20.4,20.4,0,0,1-7.46-2.58,11.33,11.33,0,0,1-4.21-4.67,22.47,22.47,0,0,1-1.93-7.82,61.84,61.84,0,0,1,.14-9.86c.15-1.72.35-3.47.58-5.24.12-.88.25-1.77.39-2.66,0-.21.06-.48.1-.64l.1-.47.17-.94a19,19,0,0,1,3.36-7,30.09,30.09,0,0,1,6.52-6.21,58,58,0,0,1,8.69-5.05,90.35,90.35,0,0,1,9.86-3.92c1.7-.58,3.43-1.13,5.17-1.62l2.61-.72,2.52-.63a5.46,5.46,0,0,0,3.41-2.64,5.4,5.4,0,0,0-2.14-7.32h0l-4.28-2.67c-1.44-1-2.88-1.89-4.27-2.86a90.76,90.76,0,0,1-7.82-6.16c-1.2-1.07-2.33-2.18-3.39-3.29s-2-2.28-2.88-3.42a32.28,32.28,0,0,1-2.21-3.47l-.44-.87-.37-.86c-.14-.29-.22-.57-.33-.85a4.55,4.55,0,0,1-.25-.78,9.8,9.8,0,0,1-.36-2.83,14.77,14.77,0,0,1,.08-1.6c.12-.57.16-1.13.32-1.73a19.74,19.74,0,0,1,1.18-3.7,31.43,31.43,0,0,1,1.9-3.81,51.6,51.6,0,0,1,12.2-13.71,41.21,41.21,0,0,1,7.53-4.85,24,24,0,0,1,3.67-1.45c.31-.07.53-.17.9-.24l1.1-.22,2.22-.48a32.85,32.85,0,0,1,8.28-.27,16.43,16.43,0,0,1,6.45,2.26,10,10,0,0,1,3.9,4.52c.09.24.19.47.3.7a6.14,6.14,0,0,1,.22.73,6.84,6.84,0,0,1,.21.74l.12.75.08.38v.38c0,.26,0,.51,0,.77s0,.52-.06.79a4.54,4.54,0,0,1-.08.81,18.25,18.25,0,0,1-2.89,7,30.58,30.58,0,0,1-2.66,3.48c-.49.56-1,1.11-1.54,1.64-.26.27-.53.51-.79.77s-.58.52-.65.6l-1.12,1.36a7,7,0,0,0,9.27,10.21c.67-.45,1-.71,1.52-1.06s.89-.66,1.3-1c.85-.68,1.66-1.38,2.46-2.12a38.94,38.94,0,0,0,4.48-4.83,32.28,32.28,0,0,0,6.36-12.73A14.82,14.82,0,0,0,802.11,620.88Z" transform="translate(-229.41 -245.88)"/><path class="cls-6" d="M897,615l-.18-2c-.07-.66-.23-1.3-.36-1.95a17.88,17.88,0,0,0-.46-1.92l-.64-1.88-.35-.93-.42-.89-.89-1.79a39.65,39.65,0,0,0-2.18-3.33,37.17,37.17,0,0,0-2.64-3l-1.47-1.32a13.51,13.51,0,0,0-1.54-1.22,32.19,32.19,0,0,0-13.81-5.64,49.89,49.89,0,0,0-13.59,0l-3.17.57-1.59.3c-.53.11-1.18.3-1.76.45a42.61,42.61,0,0,0-6.55,2.5,58.91,58.91,0,0,0-11,6.88c-1.67,1.28-3.24,2.67-4.79,4.09s-3,2.95-4.35,4.54a63.15,63.15,0,0,0-7.47,10.41A49.69,49.69,0,0,0,815,625a37.31,37.31,0,0,0-2,6.77,29.65,29.65,0,0,0-.62,7.56,25.76,25.76,0,0,0,1.55,7.93,16.87,16.87,0,0,0,.72,1.78c.25.56.48,1.13.77,1.66s.57,1.07.86,1.59l.93,1.51a40.84,40.84,0,0,0,4.21,5.41,52,52,0,0,0,9.82,8.14c1.05.67,2.11,1.3,3.17,1.9-1.41.36-2.82.76-4.21,1.22a60.11,60.11,0,0,0-11.86,5.17c-1,.57-1.92,1.14-2.86,1.79s-1.88,1.3-2.8,2-1.8,1.51-2.7,2.27-1.72,1.67-2.52,2.59A34.71,34.71,0,0,0,800,697.35l-.48,1.85-.22.93-.16.78q-.3,1.49-.57,3c-.36,2-.7,4.05-.93,6.14a69.59,69.59,0,0,0-.43,13.09,40.15,40.15,0,0,0,3.58,14.35,28.9,28.9,0,0,0,10.92,12.22,38.09,38.09,0,0,0,14.08,5c2.19.28,4.33.67,6.6.74,1.12.05,2.22.17,3.36.14l3.43-.11a49.36,49.36,0,0,0,13.75-2.85,40.92,40.92,0,0,0,12.36-7.25,44,44,0,0,0,5-5c.74-.9,1.48-1.8,2.14-2.74.35-.47.67-.94,1-1.41l.47-.71.49-.78c1.26-2.08,2.13-3.81,3.05-5.63s1.72-3.57,2.55-5.35c1.65-3.55,3.2-7.08,4.69-10.71A7.09,7.09,0,0,0,872,706.8l0,0-5.61,9.83-2.83,4.8c-.92,1.54-1.91,3.16-2.74,4.31l-.3.41-.36.46c-.24.31-.48.61-.74.9-.48.59-1,1.13-1.51,1.69a28,28,0,0,1-3.28,2.91,26.4,26.4,0,0,1-7.57,3.94,31.86,31.86,0,0,1-8.73,1.48H836c-.77,0-1.58-.11-2.37-.15a47.8,47.8,0,0,1-4.81-.59,20.4,20.4,0,0,1-7.46-2.58,11.31,11.31,0,0,1-4.2-4.67,22,22,0,0,1-1.93-7.82,60.64,60.64,0,0,1,.13-9.86c.15-1.72.35-3.47.58-5.24.12-.88.25-1.77.39-2.66,0-.21.07-.48.1-.64l.1-.47.17-.94a18.84,18.84,0,0,1,3.37-7,29.8,29.8,0,0,1,6.51-6.21,58.53,58.53,0,0,1,8.69-5.05,90.35,90.35,0,0,1,9.86-3.92c1.7-.58,3.43-1.13,5.17-1.62l2.61-.72,2.52-.63a5.46,5.46,0,0,0,3.41-2.64,5.4,5.4,0,0,0-2.14-7.32h0l-4.28-2.67c-1.44-1-2.87-1.89-4.27-2.86a90.76,90.76,0,0,1-7.82-6.16c-1.2-1.07-2.32-2.18-3.39-3.29s-2-2.28-2.88-3.42a32.28,32.28,0,0,1-2.21-3.47l-.44-.87-.37-.86c-.13-.29-.22-.57-.33-.85a5.66,5.66,0,0,1-.25-.78,10.15,10.15,0,0,1-.36-2.83c0-.5.06-1.06.08-1.6s.17-1.13.32-1.73a20.57,20.57,0,0,1,1.19-3.7,31.32,31.32,0,0,1,1.89-3.81,51.6,51.6,0,0,1,12.2-13.71,41.55,41.55,0,0,1,7.53-4.85,23.69,23.69,0,0,1,3.68-1.45c.3-.07.52-.17.89-.24l1.11-.22,2.21-.48a32.86,32.86,0,0,1,8.28-.27,16.43,16.43,0,0,1,6.45,2.26,9.93,9.93,0,0,1,3.9,4.52c.09.24.19.47.3.7a6.14,6.14,0,0,1,.22.73c.06.25.18.49.22.74s.07.5.12.75l.07.38v.38c0,.26,0,.51,0,.77s0,.52-.06.79a3.77,3.77,0,0,1-.08.81,18.1,18.1,0,0,1-2.89,7,29.47,29.47,0,0,1-2.66,3.48c-.49.56-1,1.11-1.54,1.64-.26.27-.53.51-.79.77s-.58.52-.64.6L871,634.32a7,7,0,0,0,9.26,10.21c.67-.45,1-.71,1.52-1.06s.89-.66,1.3-1c.85-.68,1.67-1.38,2.46-2.12a38.94,38.94,0,0,0,4.48-4.83,32.42,32.42,0,0,0,6.37-12.73,19.33,19.33,0,0,0,.36-1.9c.09-.64.21-1.28.26-1.93l.08-2,0-1Z" transform="translate(-229.41 -245.88)"/><path class="cls-6" d="M652,717.3a191,191,0,0,0,8.88-25.63c1.17-4.35,2.21-8.73,3.07-13.16.43-2.22.83-4.44,1.19-6.68s.67-4.48.93-6.66c.11-.86.23-1.71.36-2.56a40.49,40.49,0,0,0,5.49-2c.63-.25,1.22-.6,1.83-.9s1.22-.61,1.79-1a34.34,34.34,0,0,0,3.4-2.3c.54-.42,1.09-.83,1.62-1.27l1.5-1.38c1.08-1,1.75-1.74,2.6-2.6a106.66,106.66,0,0,0,8.87-10.72A109.6,109.6,0,0,0,701,628.71a85.69,85.69,0,0,0,5.85-13,56.16,56.16,0,0,0,2-7.34c.14-.64.25-1.32.35-2s.19-1.41.25-2.14.08-1.54.11-2.31c0-.41,0-.85,0-1.27s0-.86-.11-1.36a15.1,15.1,0,0,0-2.41-6.82,11.75,11.75,0,0,0-1.66-2,12.37,12.37,0,0,0-2.25-1.72,12.07,12.07,0,0,0-2.58-1.14,8.24,8.24,0,0,0-1.15-.3l-1.06-.19a17.92,17.92,0,0,0-6.51.46,25.79,25.79,0,0,0-4.61,1.7,38.36,38.36,0,0,0-7.09,4.48,50.86,50.86,0,0,0-5.69,5.2,73.72,73.72,0,0,0-8.95,11.58,107.8,107.8,0,0,0-11.6,25.54c-1.41,4.46-2.57,8.95-3.54,13.46a49.94,49.94,0,0,1-5.78-.55,73.13,73.13,0,0,1-11.47-2.73c-1.9-.61-3.79-1.26-5.66-2-.93-.36-1.86-.74-2.77-1.13l-1.35-.6-1.23-.57-.4-.19A6.34,6.34,0,0,0,616,653.08l1.64.91,1.56.81c1,.53,2.07,1,3.11,1.51,2.09,1,4.21,1.88,6.38,2.68a86.59,86.59,0,0,0,13.46,3.91c1.9.37,3.83.68,5.79.9A187.59,187.59,0,0,1,643.25,687a171.48,171.48,0,0,1-7.88,23.19,116.2,116.2,0,0,1-5.22,10.75c-.69,1.22-1.4,2.43-2.12,3.59a70.74,70.74,0,0,0-9.26-3.13,32.3,32.3,0,0,0-8.63-1.11,18.83,18.83,0,0,0-2.69.22l-1.42.25-1.56.45-.77.26c-.22.08-.41.17-.61.25l-1.2.54a17.67,17.67,0,0,0-2.64,1.58c-.23.17-.44.31-.68.5l-.72.64c-.24.22-.47.43-.7.66s-.48.55-.72.84-.45.56-.67.89-.44.7-.64,1.06a12.05,12.05,0,0,0-1,2.42,13.53,13.53,0,0,0-.49,2.7,13.21,13.21,0,0,0,.12,2.62c.06.41.14.82.23,1.23a10.73,10.73,0,0,0,.33,1.09c.12.35.25.72.39,1s.29.6.44.9a17.33,17.33,0,0,0,4.08,5.06,23.65,23.65,0,0,0,4.26,2.9,28.93,28.93,0,0,0,8.76,3,29.42,29.42,0,0,0,9.23.1c.78-.15,1.56-.25,2.33-.47l1.16-.3c.42-.12.94-.31,1.4-.48a17.82,17.82,0,0,0,2.59-1.2l.61-.32.52-.33,1.05-.69a31.51,31.51,0,0,0,2.74-2.16c1,.47,1.95,1,2.93,1.45,3.8,1.89,7.58,3.87,11.67,5.84,1,.5,2.07,1,3.21,1.48a31.9,31.9,0,0,0,3.92,1.48l.66.19c.23.06.4.11.76.18l1,.17.48.07.3,0c.75,0,1.6.12,2.28.09a37.41,37.41,0,0,0,4.08-.25,51.71,51.71,0,0,0,14.41-4,41,41,0,0,0,6.72-3.67,28.35,28.35,0,0,0,6.2-5.56,6.35,6.35,0,0,0-8.65-9.14l-.62.45a30.51,30.51,0,0,1-8.91,4.17,43.64,43.64,0,0,1-5.33,1.31,37.59,37.59,0,0,1-5.32.71c-.84,0-1.66.08-2.36,0a4.34,4.34,0,0,1-.78-.06l0,0-.12,0c-.44-.16-1.24-.49-2.08-.88s-1.72-.83-2.62-1.28c-3.62-1.84-7.41-3.92-11.26-5.94.52-.86,1-1.71,1.52-2.57A133.84,133.84,0,0,0,652,717.3Zm40.36-115.91c-.05-.16,0-.15,0,0ZM680.59,620a56.08,56.08,0,0,1,6.68-8.92,33.83,33.83,0,0,1,3.78-3.56l.67-.52c-.26,1.07-.57,2.18-.92,3.3a85.51,85.51,0,0,1-10.54,20.84,96.2,96.2,0,0,1-7.28,9.4c-.64.7-1.37,1.57-1.89,2l-.44.44c.16-.51.31-1,.46-1.54A96.2,96.2,0,0,1,680.59,620ZM660.28,740.45l.16,0h-.16Zm-50.85-2.73h0Zm.52-.27h0v0Z" transform="translate(-229.41 -245.88)"/><path class="cls-7" d="M727.4,851.47l-1.64-6.18q3.36,1.83,5.87,1.17a4.56,4.56,0,0,0,2.85-2.17,4.44,4.44,0,0,0,.48-3.52,13.53,13.53,0,0,0-1.78-3.68,67.78,67.78,0,0,0-6.27-7.33,61.93,61.93,0,0,1-6.73-8.16,19.65,19.65,0,0,1-2.47-5.31,11.39,11.39,0,0,1,.62-8.37,9,9,0,0,1,6-4.78,12.24,12.24,0,0,1,5.32-.11l1.51,5.64a9.08,9.08,0,0,0-4.56-.32c-3,.81-4.13,2.68-3.35,5.62a13.34,13.34,0,0,0,1.81,3.72,67.69,67.69,0,0,0,6.27,7.28,59.33,59.33,0,0,1,6.71,8.11,20.18,20.18,0,0,1,2.46,5.37,11.5,11.5,0,0,1-.6,8.44,9.2,9.2,0,0,1-6.13,4.81A11.28,11.28,0,0,1,727.4,851.47Z" transform="translate(-229.41 -245.88)"/><path class="cls-7" d="M752.86,846,742,805.07l-7.14,1.9-1.48-5.58L753.6,796l1.48,5.57-7.13,1.9,10.89,40.91Z" transform="translate(-229.41 -245.88)"/><path class="cls-7" d="M770.9,841.17l-12.38-46.48,5-1.33q6-1.59,10.06,1.09t5.63,8.52Q781,809.6,777,814.21q4.44,1.65,10.1,12.41l4.69,9-6.27,1.67-3.93-7.54q-4.17-7.9-6.21-9.82t-4.08-1.12l5.54,20.79Zm-1-28,.27-.07q5-1.33,3.15-8.37-2-7.47-7.29-6.1Z" transform="translate(-229.41 -245.88)"/><path class="cls-7" d="M792.67,835.37,789,786.29l6.22-1.66,21.14,44.43-5.77,1.54-4.41-9.85-8.63,2.3.91,10.78Zm4.27-18.13,6.7-1.78-8.45-18.6-.17,0Z" transform="translate(-229.41 -245.88)"/><path class="cls-7" d="M826.57,827l-22.49-44.44,6.29-1.67,13.81,29.78.14,0-2.06-32.91,4.31-1.15L841,807l.14,0-2.66-33.5,6.29-1.68,2.58,49.74-4.11,1.09-14.56-29.41-.14,0,2.16,32.71Z" transform="translate(-229.41 -245.88)"/><path class="cls-7" d="M861.91,816.93l-12.37-46.47,7.1-1.89a12.4,12.4,0,0,1,9.65,1.07,11.34,11.34,0,0,1,5.64,7.16q1.67,6.29-3.38,11.64,8,1.42,10.17,9.65a13.32,13.32,0,0,1-1.26,10.7q-2.85,4.76-9.91,6.64Zm-1.15-28.36.55-.15a6.73,6.73,0,0,0,4.45-3.29,7.68,7.68,0,0,0,.45-5.76,7.16,7.16,0,0,0-3.14-4.62,7,7,0,0,0-5.53-.46l-.54.15Zm5.65,21.2,1.05-.28a7.45,7.45,0,0,0,4.88-3.46,8,8,0,0,0,.46-6.13,8.77,8.77,0,0,0-3.46-5.27,7,7,0,0,0-6-.77l-1,.28Z" transform="translate(-229.41 -245.88)"/><path class="cls-7" d="M888.61,809.82l-12.37-46.47,16.54-4.41,1.49,5.57-10.57,2.82,3.7,13.89,9.68-2.58,1.49,5.58-9.69,2.57,4.23,15.87,11.14-3,1.49,5.57Z" transform="translate(-229.41 -245.88)"/><path class="cls-7" d="M914,803.06l-12.37-46.47,5-1.33q6-1.59,10.06,1.09t5.63,8.52q1.77,6.63-2.17,11.24,4.44,1.65,10.11,12.41l4.68,9-6.27,1.67-3.93-7.54q-4.17-7.9-6.21-9.82t-4.08-1.12L920,801.47Zm-1-27.95.27-.07q5-1.35,3.16-8.37-2-7.49-7.3-6.1Z" transform="translate(-229.41 -245.88)"/><path class="cls-7" d="M939.4,796.3,927,749.82l5-1.33q6-1.59,10.06,1.09t5.63,8.52q1.77,6.63-2.17,11.24Q950,771,955.65,781.75l4.68,9-6.27,1.66-3.93-7.53q-4.17-7.92-6.2-9.83t-4.08-1.12l5.53,20.8Zm-1-28,.27-.07q5-1.34,3.16-8.37-2-7.47-7.3-6.1Z" transform="translate(-229.41 -245.88)"/><path class="cls-7" d="M964.61,789.59l-12.38-46.48,6-1.59L970.59,788Z" transform="translate(-229.41 -245.88)"/><path class="cls-7" d="M978.54,785.88,966.16,739.4l16.55-4.4,1.48,5.57-10.56,2.81,3.7,13.9L987,754.7l1.48,5.57-9.68,2.58L983,778.71l11.15-3,1.48,5.57Z" transform="translate(-229.41 -245.88)"/><path class="cls-7" d="M1001.73,778.43l-1.65-6.18c2.25,1.22,4.2,1.61,5.88,1.16a4.67,4.67,0,0,0,3.32-5.69,13.14,13.14,0,0,0-1.77-3.67,68.79,68.79,0,0,0-6.27-7.34,62.44,62.44,0,0,1-6.74-8.15,19.87,19.87,0,0,1-2.46-5.31,11.38,11.38,0,0,1,.62-8.37,9,9,0,0,1,6-4.79A12.39,12.39,0,0,1,1004,730l1.5,5.64a8.94,8.94,0,0,0-4.56-.31q-4.52,1.2-3.34,5.62a13.6,13.6,0,0,0,1.81,3.72,68.72,68.72,0,0,0,6.27,7.28,58.14,58.14,0,0,1,6.71,8.11,20,20,0,0,1,2.46,5.36,11.5,11.5,0,0,1-.61,8.44,9.14,9.14,0,0,1-6.12,4.81A11.28,11.28,0,0,1,1001.73,778.43Z" transform="translate(-229.41 -245.88)"/></svg>